<?xml version="1.0" encoding="UTF-8" standalone="no"?>
<!-- Created with Inkscape (http://www.inkscape.org/) -->
<svg id="svg2" xmlns:rdf="http://www.w3.org/1999/02/22-rdf-syntax-ns#" xmlns="http://www.w3.org/2000/svg" height="256" width="256" version="1.1" xmlns:cc="http://creativecommons.org/ns#" xmlns:xlink="http://www.w3.org/1999/xlink" viewBox="0 0 256 256" xmlns:dc="http://purl.org/dc/elements/1.1/">
 <defs id="defs4">
  <linearGradient id="linearGradient4253" y2="800" gradientUnits="userSpaceOnUse" x2="0" gradientTransform="translate(-1.1929 -796.47)" y1="1000" x1="0">
   <stop id="stop4249" stop-color="#d57869" offset="0"/>
   <stop id="stop4251" stop-color="#d18f59" offset="1"/>
  </linearGradient>
 </defs>
 <g id="layer2">
  <rect id="rect3347" fill-rule="evenodd" rx="40" ry="40" height="220" width="220" y="18" x="18" fill="url(#linearGradient4253)"/>
 </g>
 <g id="layer3">
  <path id="path4256" d="m194.88 47.176c-2.3058 0.03413-4.4404 1.9451-3.3203 5.3613 4.3011 9.767 3.912 34.954-18.938 46.244l-7.334-9.334-34.402 0.16211-78.539 57.45c-1.5848 1.4542-1.8612 5.3152-0.69531 6.8809l35.942 48.27c1.8595 2.4973 3.8864 3.6867 6.8105 1.5801l79.647-57.379 9.25-32.416-5.8184-8.5215c34.677-21.147 21.064-56.25 21.064-56.25-0.84005-1.4113-2.2845-2.0674-3.668-2.0469zm-36.617 54.176c2.7851 0.005 5.4927 0.91805 7.7129 2.5996l-4.9277 3.4258c-4.0323 2.509-0.17868 9.4978 4.6152 6.4512l4.8281-3.4531c0.38525 1.2276 0.58343 2.5063 0.58789 3.793-0.00002 7.0783-5.7381 12.816-12.816 12.816-7.0783-0.00002-12.816-5.7381-12.816-12.816 0.00002-7.0783 5.7381-12.816 12.816-12.816zm-44.213 24.758c0.10429-0.00042 0.21236 0.009 0.32227 0.0293 0.44268 0.0622 0.7857 0.25323 1.0293 0.57031 0.21652 0.28186 0.32009 0.63622 0.31054 1.0644 0.003 0.41944-0.20882 0.78239-0.63086 1.0898l-5.0644 3.6894 16.105 20.963c0.29772 0.38755 0.41619 0.78671 0.35547 1.1973-0.0757 0.36655-0.30198 0.68667-0.67578 0.95899-0.33763 0.24596-0.70865 0.36087-1.1152 0.3457-0.41562-0.0269-0.78189-0.24521-1.0976-0.65625l-16.104-20.963-5.0644 3.6894c-0.38587 0.2811-0.78469 0.39706-1.1973 0.34961-0.42455-0.11199-0.76301-0.33132-1.0156-0.66015-0.21653-0.28186-0.32757-0.63329-0.33008-1.0527 0.01-0.42823 0.2264-0.79606 0.64844-1.1035l12.66-9.2246c0.26227-0.19106 0.55041-0.28585 0.86328-0.28711zm38.73 11.646 1.8945 2.4668-15.193 11.068-1.8945-2.4668zm-59.041 3.1191c0.10166-0.005 0.20514-0.001 0.31055 0.0137 0.43973 0.009 0.8004 0.19648 1.0801 0.56054l0.19336 0.32422 11.973 25.869c0.18035 0.30821 0.22376 0.64423 0.12695 1.0078-0.0847 0.35481-0.27862 0.64172-0.58008 0.86133-0.57879 0.42165-1.1945 0.43975-1.8477 0.0547l-11.855-7.5742 4.1133 13.213c0.0599 0.24939 0.0561 0.57384-0.0137 0.97266-0.0967 0.29026-0.27769 0.53331-0.54297 0.72656-0.65114 0.47436-1.3198 0.44777-2.0059-0.0781l-22.104-18.488-0.27539-0.32226c-0.2075-0.27011-0.28325-0.62747-0.22852-1.0703 0.05474-0.44284 0.25773-0.79018 0.60742-1.0449 0.27734-0.20204 0.56599-0.30311 0.86719-0.30273s0.66904 0.12514 1.1055 0.375l17.982 15.035-3.7852-12.162c-0.26103-0.85388-0.12074-1.4778 0.42188-1.873 0.50644-0.36894 1.1612-0.32382 1.9648 0.13477l10.912 6.9688-9.7344-21.043c-0.35151-0.75133-0.19997-1.3635 0.45117-1.8379 0.27131-0.19765 0.5583-0.3042 0.86328-0.32032z" fill-rule="evenodd" fill="#fff"/>
 </g>
</svg>
